<svg width="12" height="8" viewBox="0 0 12 8" fill="none" xmlns="http://www.w3.org/2000/svg">
<path d="M11.6094 2.29688L6.35937 7.5625C6.29687 7.625 6.22917 7.66917 6.15625 7.695C6.08333 7.72125 6.00521 7.73438 5.92188 7.73438C5.83854 7.73438 5.76042 7.72125 5.6875 7.695C5.61458 7.66917 5.54688 7.625 5.48438 7.5625L0.21875 2.29688C0.0729166 2.15104 0 1.96875 0 1.75C0 1.53125 0.078125 1.34375 0.234375 1.1875C0.390625 1.03125 0.572917 0.953125 0.78125 0.953125C0.989583 0.953125 1.17188 1.03125 1.32813 1.1875L5.92188 5.78125L10.5156 1.1875C10.6615 1.04167 10.841 0.96875 11.0544 0.96875C11.2681 0.96875 11.4531 1.04688 11.6094 1.20313C11.7656 1.35938 11.8438 1.54167 11.8438 1.75C11.8438 1.95833 11.7656 2.14063 11.6094 2.29688Z" fill="black"/>
</svg>
