<svg width="40" height="40" viewBox="0 0 40 40" fill="none" xmlns="http://www.w3.org/2000/svg">
<circle cx="20" cy="20" r="20" fill="black"/>
<g clip-path="url(#clip0_415_2433)">
<path d="M11.1474 27.0572C9.92769 25.8375 9.31781 24.3791 9.31781 22.682C9.31781 20.9849 9.92769 19.5265 11.1474 18.3068L19.5001 9.95408C20.3752 9.07903 21.4359 8.64151 22.6821 8.64151C23.9284 8.64151 24.9891 9.07903 25.8641 9.95408C26.7392 10.8291 27.1767 11.8898 27.1767 13.1361C27.1767 14.3823 26.7392 15.443 25.8641 16.318L18.3069 23.8752C17.7501 24.4321 17.0871 24.7105 16.3182 24.7105C15.5492 24.7105 14.8863 24.4321 14.3294 23.8752C13.7726 23.3184 13.4942 22.6555 13.4942 21.8865C13.4942 21.1175 13.7726 20.4546 14.3294 19.8978L21.29 12.9372C21.4624 12.7648 21.6612 12.6789 21.8866 12.6794C22.112 12.68 22.3109 12.7659 22.4833 12.9372C22.6556 13.1095 22.7415 13.3084 22.741 13.5338C22.7405 13.7592 22.6546 13.9581 22.4833 14.1304L15.5227 21.091C15.2973 21.3164 15.1846 21.5818 15.1846 21.8873C15.1846 22.1928 15.2973 22.4577 15.5227 22.682C15.7481 22.9074 16.0135 23.0201 16.319 23.0201C16.6244 23.0201 16.8893 22.9074 17.1137 22.682L24.6709 15.1248C25.2277 14.5679 25.5061 13.905 25.5061 13.1361C25.5061 12.3671 25.2277 11.7042 24.6709 11.1473C24.114 10.5905 23.4511 10.312 22.6821 10.312C21.9132 10.312 21.2502 10.5905 20.6934 11.1473L12.3407 19.5C11.4656 20.3751 11.0281 21.4357 11.0281 22.682C11.0281 23.9283 11.4656 24.9889 12.3407 25.864C13.2157 26.739 14.2764 27.1765 15.5227 27.1765C16.7689 27.1765 17.8296 26.739 18.7047 25.864L26.4607 18.1079C26.6331 17.9355 26.832 17.8496 27.0574 17.8502C27.2827 17.8507 27.4816 17.9366 27.654 18.1079C27.8263 18.2803 27.9122 18.4791 27.9117 18.7045C27.9112 18.9299 27.8253 19.1288 27.654 19.3011L19.8979 27.0572C18.6781 28.277 17.2197 28.8869 15.5227 28.8869C13.8256 28.8869 12.3672 28.277 11.1474 27.0572Z" fill="#C4C4C4"/>
</g>
<defs>
<clipPath id="clip0_415_2433">
<rect width="27" height="27" fill="white" transform="translate(19.5 0.408081) rotate(45)"/>
</clipPath>
</defs>
</svg>
