<svg width="16" height="16" viewBox="0 0 16 16" fill="none" xmlns="http://www.w3.org/2000/svg">
<path d="M3.33333 14.6666C2.96667 14.6666 2.65267 14.5359 2.39133 14.2746C2.13 14.0133 1.99956 13.6995 2 13.3333V3.99992C2 3.63325 2.13067 3.31925 2.392 3.05792C2.65333 2.79659 2.96711 2.66614 3.33333 2.66659H4V1.33325H5.33333V2.66659H10.6667V1.33325H12V2.66659H12.6667C13.0333 2.66659 13.3473 2.79725 13.6087 3.05859C13.87 3.31992 14.0004 3.6337 14 3.99992V13.3333C14 13.6999 13.8693 14.0139 13.608 14.2753C13.3467 14.5366 13.0329 14.667 12.6667 14.6666H3.33333ZM3.33333 13.3333H12.6667V6.66658H3.33333V13.3333Z" fill="white"/>
</svg>
