<svg width="24" height="24" viewBox="0 0 24 24" fill="none" xmlns="http://www.w3.org/2000/svg">
<path d="M6 18L3.7 20.3C3.38334 20.6167 3.02067 20.6877 2.612 20.513C2.20333 20.3383 1.99933 20.0257 2 19.575V4C2 3.45 2.196 2.979 2.588 2.587C2.98 2.195 3.45067 1.99933 4 2H14.1C14.0333 2.33333 14 2.66667 14 3C14 3.33333 14.0333 3.66667 14.1 4H4V16H20V7.9C20.3833 7.81667 20.7417 7.704 21.075 7.562C21.4083 7.42 21.7167 7.23267 22 7V16C22 16.55 21.804 17.021 21.412 17.413C21.02 17.805 20.5493 18.0007 20 18H6ZM13 14C13.2833 14 13.521 13.904 13.713 13.712C13.905 13.52 14.0007 13.2827 14 13C14 12.7167 13.904 12.479 13.712 12.287C13.52 12.095 13.2827 11.9993 13 12H7C6.71667 12 6.479 12.096 6.287 12.288C6.095 12.48 5.99933 12.7173 6 13C6 13.2833 6.096 13.521 6.288 13.713C6.48 13.905 6.71733 14.0007 7 14H13ZM17 11C17.2833 11 17.521 10.904 17.713 10.712C17.905 10.52 18.0007 10.2827 18 10C18 9.71667 17.904 9.479 17.712 9.287C17.52 9.095 17.2827 8.99933 17 9H7C6.71667 9 6.479 9.096 6.287 9.288C6.095 9.48 5.99933 9.71733 6 10C6 10.2833 6.096 10.521 6.288 10.713C6.48 10.905 6.71733 11.0007 7 11H17ZM15 6H7C6.71667 6 6.479 6.096 6.287 6.288C6.095 6.48 5.99933 6.71733 6 7C6 7.28333 6.096 7.521 6.288 7.713C6.48 7.905 6.71733 8.00067 7 8H18V7.9C17.3833 7.76667 16.8207 7.53733 16.312 7.212C15.8033 6.88667 15.366 6.48267 15 6ZM19 6C18.1667 6 17.4583 5.70833 16.875 5.125C16.2917 4.54167 16 3.83333 16 3C16 2.16667 16.2917 1.45833 16.875 0.875C17.4583 0.291667 18.1667 0 19 0C19.8333 0 20.5417 0.291667 21.125 0.875C21.7083 1.45833 22 2.16667 22 3C22 3.83333 21.7083 4.54167 21.125 5.125C20.5417 5.70833 19.8333 6 19 6Z" fill="#9C9C9C"/>
</svg>
