<svg width="24" height="22" viewBox="0 0 24 22" fill="none" xmlns="http://www.w3.org/2000/svg">
<path d="M1.5 0.5C2.32969 0.5 3 1.17031 3 2V10V17.75C3 18.1625 3.3375 18.5 3.75 18.5H22.5C23.3297 18.5 24 19.1703 24 20C24 20.8297 23.3297 21.5 22.5 21.5H3.75C1.67812 21.5 0 19.8219 0 17.75V2C0 1.17031 0.670312 0.5 1.5 0.5ZM6 5C6 4.17031 6.67031 3.5 7.5 3.5H12C12.8297 3.5 13.5 4.17031 13.5 5C13.5 5.82969 12.8297 6.5 12 6.5H9.75H7.5C6.67031 6.5 6 5.82969 6 5ZM10.5 8H16.5C17.3297 8 18 8.67031 18 9.5C18 10.3297 17.3297 11 16.5 11H10.5C9.67031 11 9 10.3297 9 9.5C9 8.67031 9.67031 8 10.5 8ZM18 12.5H21C21.8297 12.5 22.5 13.1703 22.5 14C22.5 14.8297 21.8297 15.5 21 15.5H18C17.1703 15.5 16.5 14.8297 16.5 14C16.5 13.1703 17.1703 12.5 18 12.5Z" fill="#9C9C9C"/>
</svg>
