<svg width="21" height="21" viewBox="0 0 21 21" fill="none" xmlns="http://www.w3.org/2000/svg">
<path d="M6.69943 1L2.89981 1.0057C2.39595 1.0057 1.91272 1.20588 1.55644 1.5622C1.20016 1.91852 1 2.40179 1 2.9057V6.7C1.00012 7.16566 1.17122 7.61507 1.48082 7.96288C1.79042 8.31069 2.21696 8.53268 2.67943 8.5867L2.90361 8.6L6.70323 8.5943C7.20676 8.5938 7.6895 8.3934 8.04537 8.03713C8.40124 7.68087 8.60114 7.19788 8.60114 6.6943V2.9019C8.60149 2.43591 8.4306 1.98604 8.12095 1.63783C7.81131 1.28962 7.38451 1.06735 6.92171 1.0133L6.69943 1ZM18.0983 1L14.2987 1.0057C13.7948 1.0057 13.3116 1.20588 12.9553 1.5622C12.599 1.91852 12.3989 2.40179 12.3989 2.9057V6.7C12.399 7.16566 12.5701 7.61507 12.8797 7.96288C13.1893 8.31069 13.6158 8.53268 14.0783 8.5867L14.3025 8.6L18.1021 8.5943C18.6056 8.5938 19.0884 8.3934 19.4442 8.03713C19.8001 7.68087 20 7.19788 20 6.6943V2.9019C20.0003 2.43591 19.8295 1.98604 19.5198 1.63783C19.2102 1.28962 18.7834 1.06735 18.3206 1.0133L18.0983 1ZM6.69943 12.4L2.89981 12.4057C2.39595 12.4057 1.91272 12.6059 1.55644 12.9622C1.20016 13.3185 1 13.8018 1 14.3057V18.1C1.00012 18.5657 1.17122 19.0151 1.48082 19.3629C1.79042 19.7107 2.21696 19.9327 2.67943 19.9867L2.90361 20L6.70323 19.9943C7.20676 19.9938 7.6895 19.7934 8.04537 19.4371C8.40124 19.0809 8.60114 18.5979 8.60114 18.0943V14.3019C8.60149 13.8359 8.4306 13.386 8.12095 13.0378C7.81131 12.6896 7.38451 12.4674 6.92171 12.4133L6.69943 12.4ZM18.0983 12.4L14.2987 12.4057C13.7948 12.4057 13.3116 12.6059 12.9553 12.9622C12.599 13.3185 12.3989 13.8018 12.3989 14.3057V18.1C12.399 18.5657 12.5701 19.0151 12.8797 19.3629C13.1893 19.7107 13.6158 19.9327 14.0783 19.9867L14.3025 20L18.1021 19.9943C18.6056 19.9938 19.0884 19.7934 19.4442 19.4371C19.8001 19.0809 20 18.5979 20 18.0943V14.3019C20.0003 13.8359 19.8295 13.386 19.5198 13.0378C19.2102 12.6896 18.7834 12.4674 18.3206 12.4133L18.0983 12.4Z" stroke="#9C9C9C" stroke-width="2" stroke-linecap="round" stroke-linejoin="round"/>
</svg>
