<svg width="20" height="14" viewBox="0 0 20 14" fill="none" xmlns="http://www.w3.org/2000/svg">
<path d="M2 13.25H18C18.6881 13.25 19.25 12.6881 19.25 12C19.25 11.3119 18.6881 10.75 18 10.75H2C1.31193 10.75 0.75 11.3119 0.75 12C0.75 12.6881 1.31193 13.25 2 13.25ZM2 8.25H18C18.6881 8.25 19.25 7.68807 19.25 7C19.25 6.31193 18.6881 5.75 18 5.75H2C1.31193 5.75 0.75 6.31193 0.75 7C0.75 7.68807 1.31193 8.25 2 8.25ZM0.75 2C0.75 2.68807 1.31193 3.25 2 3.25H18C18.6881 3.25 19.25 2.68807 19.25 2C19.25 1.31193 18.6881 0.75 18 0.75H2C1.31193 0.75 0.75 1.31193 0.75 2Z" fill="#9C9C9C" stroke="#9C9C9C" stroke-width="0.5"/>
</svg>
