<svg width="67" height="51" viewBox="0 0 67 51" fill="none" xmlns="http://www.w3.org/2000/svg">
<rect x="9.27393" y="15.7918" width="27.8075" height="7.41533" rx="0.926916" transform="rotate(90 9.27393 15.7918)" fill="#E6FE52"/>
<rect x="46.3507" y="15.7918" width="27.8075" height="7.41533" rx="0.926916" transform="rotate(90 46.3507 15.7918)" fill="#E6FE52"/>
<rect x="18.5431" y="15.7918" width="27.8075" height="7.41533" rx="0.926916" transform="rotate(90 18.5431 15.7918)" fill="#E6FE52"/>
<rect x="55.62" y="15.7918" width="27.8075" height="7.41533" rx="0.926916" transform="rotate(90 55.62 15.7918)" fill="#E6FE52"/>
<rect x="27.8123" y="15.7918" width="27.8075" height="7.41533" rx="0.926916" transform="rotate(90 27.8123 15.7918)" fill="#E6FE52"/>
<rect x="37.0815" y="9.26913" width="32.2623" height="7.41533" rx="0.926916" transform="rotate(90 37.0815 9.26913)" fill="#E6FE52"/>
<rect x="64.8892" y="15.7918" width="27.8075" height="7.41533" rx="0.926916" transform="rotate(90 64.8892 15.7918)" fill="#E6FE52"/>
<path d="M34.1766 6.02494C33.8198 6.64288 32.9279 6.64288 32.5711 6.02494L30.9657 3.24419C30.6089 2.62625 31.0549 1.85382 31.7684 1.85382L34.9793 1.85382C35.6929 1.85382 36.1388 2.62625 35.7821 3.24419L34.1766 6.02494Z" fill="#E6FE52"/>
<path d="M3.66492 50.5181C5.74121 50.5181 6.06564 49.5448 6.06564 49.0953V49.0211H4.70307C4.68453 49.0999 4.58257 49.5865 3.5676 49.5865C2.64068 49.5865 2.40895 49.0999 2.40895 48.7291V48.6735C2.40895 48.2888 2.61287 47.8671 3.56296 47.8671C4.56403 47.8671 4.67063 48.3027 4.69843 48.3954H6.06564V48.3352C6.06564 47.8903 5.75975 46.9402 3.66492 46.9402H3.48417C1.33373 46.9402 1.04638 47.9922 1.04638 48.6503V48.7847C1.04638 49.4382 1.36617 50.5181 3.48417 50.5181H3.66492ZM6.3436 48.6503C6.3436 49.3177 6.62631 50.5088 8.63308 50.5088H8.81847C10.7696 50.5088 11.0894 49.3177 11.0894 48.6503V47.0051H9.77319V48.5484C9.77319 48.9701 9.57854 49.4753 8.72114 49.4753C7.84984 49.4753 7.66446 48.9701 7.66446 48.5484V47.0051H6.3436V48.6503ZM12.8112 47.8439H14.3221C14.6187 47.8439 14.7207 47.9737 14.7207 48.1359V48.1405C14.7207 48.3074 14.6141 48.4371 14.3221 48.4371H12.8112V47.8439ZM12.8112 49.2714H14.0718C14.5909 49.2714 14.7717 49.4753 14.7717 49.8692V50.2724C14.7717 50.3698 14.7809 50.4161 14.8134 50.4532H16.1574V50.43C16.125 50.3698 16.0925 50.2817 16.0925 50.0407V49.5309C16.0925 49.086 15.8098 48.8079 15.3834 48.7106C15.643 48.6503 16.0786 48.4418 16.0786 47.9412V47.8903C16.0786 47.3295 15.6337 47.0051 14.628 47.0051H11.495V50.4532H12.8112V49.2714ZM17.7717 47.8439H19.2826C19.5792 47.8439 19.6811 47.9737 19.6811 48.1359V48.1405C19.6811 48.3074 19.5745 48.4371 19.2826 48.4371H17.7717V47.8439ZM17.7717 49.2714H19.0323C19.5514 49.2714 19.7321 49.4753 19.7321 49.8692V50.2724C19.7321 50.3698 19.7414 50.4161 19.7738 50.4532H21.1179V50.43C21.0854 50.3698 21.053 50.2817 21.053 50.0407V49.5309C21.053 49.086 20.7703 48.8079 20.3439 48.7106C20.6034 48.6503 21.0391 48.4418 21.0391 47.9412V47.8903C21.0391 47.3295 20.5941 47.0051 19.5884 47.0051H16.4555V50.4532H17.7717V49.2714ZM21.4159 47.0051V50.4532H25.2672V49.5912H22.7136V49.1184H25.1792V48.2796H22.7136V47.8486H25.2302V47.0051H21.4159ZM25.6477 47.0051V50.4532H26.9546V48.363L29.1143 50.4532H30.4306V47.0051H29.1236V48.9655L27.1215 47.0051H25.6477ZM32.2563 50.4532H33.5725V47.9459H35.0602V47.0051H30.7686V47.9459H32.2563V50.4532ZM39.659 49.035H38.5142L39.0796 47.8486L39.659 49.035ZM40.3495 50.4532H41.7909L39.988 47.0051H38.2176L36.5121 50.4532H37.8468L38.111 49.897H40.0807L40.3495 50.4532ZM43.9371 50.5181C45.0123 50.5181 45.4433 50.1241 45.5777 49.9758C45.6426 50.101 45.7168 50.342 45.7399 50.4532H46.5695V48.5113H44.0159V49.1833H45.2255C45.2255 49.2945 44.9381 49.6143 44.0483 49.6143C43.1955 49.6143 42.8665 49.1833 42.8665 48.743V48.692C42.8665 48.2379 43.1307 47.8393 44.0576 47.8393C45.0308 47.8393 45.1513 48.1869 45.1745 48.2749H46.5463V48.2703C46.5278 47.7883 46.2405 46.9402 44.1271 46.9402H43.9463C41.9118 46.9402 41.5039 47.9088 41.5039 48.6503V48.7801C41.5039 49.5077 41.9442 50.5181 43.8305 50.5181H43.9371ZM46.9921 47.0051V50.4532H50.8434V49.5912H48.2898V49.1184H50.7554V48.2796H48.2898V47.8486H50.8064V47.0051H46.9921ZM51.2239 47.0051V50.4532H52.5308V48.363L54.6905 50.4532H56.0068V47.0051H54.6998V48.9655L52.6977 47.0051H51.2239ZM58.954 50.5181C61.0303 50.5181 61.3547 49.5448 61.3547 49.0953V49.0211H59.9922C59.9736 49.0999 59.8717 49.5865 58.8567 49.5865C57.9298 49.5865 57.6981 49.0999 57.6981 48.7291V48.6735C57.6981 48.2888 57.902 47.8671 58.8521 47.8671C59.8531 47.8671 59.9597 48.3027 59.9875 48.3954H61.3547V48.3352C61.3547 47.8903 61.0489 46.9402 58.954 46.9402H58.7733C56.6228 46.9402 56.3355 47.9922 56.3355 48.6503V48.7847C56.3355 49.4382 56.6553 50.5181 58.7733 50.5181H58.954ZM62.8562 50.4532H64.1724V49.1648L66.017 47.0051H64.5756L63.5514 48.1961L62.5457 47.0051H60.9699L62.8562 49.1555V50.4532Z" fill="black"/>
</svg>
