<svg width="66" height="52" viewBox="0 0 66 52" fill="none" xmlns="http://www.w3.org/2000/svg">
<rect x="9.34229" y="15.7919" width="27.8075" height="7.41533" rx="0.926916" transform="rotate(90 9.34229 15.7919)" fill="#E6FE52"/>
<rect x="46.4191" y="15.7919" width="27.8075" height="7.41533" rx="0.926916" transform="rotate(90 46.4191 15.7919)" fill="#E6FE52"/>
<rect x="18.6115" y="15.7919" width="27.8075" height="7.41533" rx="0.926916" transform="rotate(90 18.6115 15.7919)" fill="#E6FE52"/>
<rect x="55.6883" y="15.7919" width="27.8075" height="7.41533" rx="0.926916" transform="rotate(90 55.6883 15.7919)" fill="#E6FE52"/>
<rect x="27.8807" y="15.7919" width="27.8075" height="7.41533" rx="0.926916" transform="rotate(90 27.8807 15.7919)" fill="#E6FE52"/>
<rect x="37.1499" y="9.26917" width="32.2623" height="7.41533" rx="0.926916" transform="rotate(90 37.1499 9.26917)" fill="#E6FE52"/>
<rect x="64.9575" y="15.7919" width="27.8075" height="7.41533" rx="0.926916" transform="rotate(90 64.9575 15.7919)" fill="#E6FE52"/>
<path d="M34.245 6.02497C33.8882 6.64291 32.9963 6.64291 32.6395 6.02497L31.034 3.24422C30.6773 2.62628 31.1232 1.85385 31.8368 1.85385L35.0477 1.85385C35.7612 1.85385 36.2072 2.62628 35.8504 3.24422L34.245 6.02497Z" fill="#E6FE52"/>
<path d="M3.45136 51.532C5.9736 51.532 6.3677 50.3497 6.3677 49.8036V49.7135H4.71248C4.68996 49.8092 4.5661 50.4004 3.33313 50.4004C2.20713 50.4004 1.92563 49.8092 1.92563 49.3588V49.2913C1.92563 48.824 2.17335 48.3116 3.3275 48.3116C4.54358 48.3116 4.67307 48.8409 4.70685 48.9535H6.3677V48.8803C6.3677 48.3398 5.99612 47.1856 3.45136 47.1856H3.23179C0.619473 47.1856 0.270413 48.4637 0.270413 49.2631V49.4264C0.270413 50.2202 0.658883 51.532 3.23179 51.532H3.45136ZM6.70537 49.2631C6.70537 50.0738 7.0488 51.5207 9.48659 51.5207H9.71179C12.082 51.5207 12.4705 50.0738 12.4705 49.2631V47.2645H10.8716V49.1393C10.8716 49.6516 10.6351 50.2653 9.59356 50.2653C8.53512 50.2653 8.30992 49.6516 8.30992 49.1393V47.2645H6.70537V49.2631ZM14.5621 48.2835H16.3975C16.7578 48.2835 16.8817 48.4411 16.8817 48.6382V48.6438C16.8817 48.8465 16.7522 49.0041 16.3975 49.0041H14.5621V48.2835ZM14.5621 50.0175H16.0935C16.724 50.0175 16.9436 50.2653 16.9436 50.7438V51.2336C16.9436 51.3518 16.9549 51.4081 16.9943 51.4532H18.627V51.425C18.5876 51.3518 18.5482 51.2449 18.5482 50.9521V50.3328C18.5482 49.7923 18.2047 49.4545 17.6868 49.3363C18.0021 49.2631 18.5313 49.0098 18.5313 48.4017V48.3398C18.5313 47.6586 17.9908 47.2645 16.7691 47.2645H12.9632V51.4532H14.5621V50.0175ZM20.588 48.2835H22.4234C22.7837 48.2835 22.9075 48.4411 22.9075 48.6382V48.6438C22.9075 48.8465 22.7781 49.0041 22.4234 49.0041H20.588V48.2835ZM20.588 50.0175H22.1193C22.7499 50.0175 22.9695 50.2653 22.9695 50.7438V51.2336C22.9695 51.3518 22.9807 51.4081 23.0201 51.4532H24.6528V51.425C24.6134 51.3518 24.574 51.2449 24.574 50.9521V50.3328C24.574 49.7923 24.2306 49.4545 23.7126 49.3363C24.0279 49.2631 24.5571 49.0098 24.5571 48.4017V48.3398C24.5571 47.6586 24.0167 47.2645 22.7949 47.2645H18.9891V51.4532H20.588V50.0175ZM25.0149 47.2645V51.4532H29.6935V50.406H26.5913V49.8317H29.5865V48.8127H26.5913V48.2891H29.6484V47.2645H25.0149ZM30.1556 47.2645V51.4532H31.7433V48.9141L34.3668 51.4532H35.9658V47.2645H34.3781V49.646L31.9459 47.2645H30.1556ZM38.1836 51.4532H39.7825V48.4074H41.5897V47.2645H36.3763V48.4074H38.1836V51.4532ZM45.3915 51.4532H46.9904V48.4074H48.7977V47.2645H43.5843V48.4074H45.3915V51.4532ZM51.8221 49.7304H50.4315L51.1183 48.2891L51.8221 49.7304ZM52.661 51.4532H54.4119L52.2218 47.2645H50.0711L47.9993 51.4532H49.6207L49.9417 50.7776H52.3344L52.661 51.4532ZM57.2844 51.532C59.4857 51.532 59.8798 50.8114 59.8798 50.1076V50.0288C59.8798 49.1843 59.2605 48.8127 57.6673 48.7677L56.9128 48.7508C56.1246 48.7339 56.0008 48.5988 56.0008 48.4299V48.4242C56.0008 48.261 56.0852 48.1146 56.9241 48.1146H56.9804C57.8868 48.1146 57.9769 48.4074 57.9938 48.5594H59.7335V48.5143C59.7335 47.85 59.2605 47.1913 57.1887 47.1913H56.6876C54.734 47.1913 54.278 47.7881 54.278 48.4693V48.52C54.278 49.1674 54.7115 49.736 56.3329 49.7811L57.1099 49.8036C57.9882 49.8317 58.0951 49.9669 58.0951 50.1808V50.1864C58.0951 50.3891 57.9656 50.5805 57.0705 50.5805H57.0198C56.1077 50.5805 55.9895 50.2146 55.9726 49.9894H54.2161V50.0457C54.2161 50.5918 54.4582 51.532 56.7721 51.532H57.2844ZM61.8398 51.4532V49.5784L63.8835 51.4532H65.9666L63.45 49.1674L65.8878 47.2645H63.9004L61.8398 48.9197V47.2645H60.2409V51.4532H61.8398Z" fill="white"/>
</svg>
