<svg width="24" height="25" viewBox="0 0 24 25" fill="none" xmlns="http://www.w3.org/2000/svg">
<path d="M23.2499 6.25244C23.2507 5.65039 23.0846 5.06091 22.7714 4.55487C22.4583 4.04884 22.0115 3.6478 21.4848 3.39997C20.9581 3.15214 20.3738 3.06808 19.8023 3.1579C19.2308 3.24771 18.6964 3.50758 18.2633 3.90625C18.0288 4.1217 17.8278 4.37371 17.6675 4.65332V4.65625C17.6422 4.70019 17.6183 4.74511 17.5949 4.79004L17.5836 4.81396C17.5639 4.85254 17.5456 4.8916 17.5278 4.93115C17.5222 4.94336 17.5171 4.95556 17.5119 4.96777C17.4964 5.00342 17.4814 5.03955 17.4674 5.07617C17.4613 5.09131 17.4556 5.10644 17.45 5.12158C17.4374 5.15576 17.4252 5.18994 17.4135 5.22461L17.3966 5.27637C17.3863 5.30957 17.3764 5.34326 17.3671 5.37695C17.3614 5.39599 17.3563 5.41455 17.3516 5.43359C17.3427 5.46631 17.3352 5.49951 17.3277 5.53125C17.323 5.55127 17.3183 5.57129 17.3141 5.59131C17.3075 5.62451 17.3014 5.6582 17.2958 5.68896C17.2921 5.70947 17.2883 5.72998 17.285 5.75049C17.2799 5.78467 17.2756 5.81933 17.2714 5.854C17.2691 5.87402 17.2663 5.89404 17.2639 5.91455C17.2602 5.95215 17.2578 5.98974 17.255 6.02783C17.255 6.04541 17.2522 6.06299 17.2513 6.08056C17.2485 6.13623 17.2466 6.19189 17.2466 6.24853C17.2466 6.29736 17.2466 6.34619 17.2503 6.39209V6.42334C17.2528 6.46924 17.2561 6.51513 17.2602 6.56103L17.263 6.58447C17.2672 6.62597 17.2719 6.66699 17.278 6.70752C17.278 6.71582 17.278 6.72461 17.2813 6.73291C17.2878 6.77734 17.2958 6.82129 17.3042 6.86523C17.3042 6.87597 17.3085 6.88623 17.3103 6.89697C17.3188 6.93896 17.3281 6.98096 17.3385 7.02246V7.03174C17.3492 7.07519 17.361 7.11767 17.3736 7.16015L17.3835 7.19336C17.3961 7.23486 17.4092 7.27539 17.4233 7.31592C17.4261 7.32471 17.4294 7.33349 17.4327 7.34228C17.4453 7.37695 17.4585 7.41162 17.4721 7.4458C17.4758 7.45605 17.4796 7.46582 17.4838 7.47558C17.4997 7.51416 17.5161 7.55273 17.5335 7.59082L17.5489 7.62353C17.5653 7.65771 17.5817 7.69189 17.5991 7.72558C17.8438 8.19928 18.2011 8.59959 18.6369 8.88818C18.7513 8.9643 18.8706 9.03201 18.9941 9.09082L19.0124 9.09961C19.0955 9.13867 19.1803 9.17383 19.2669 9.20508L19.3114 9.2207L19.3817 9.24365C19.4028 9.25049 19.4239 9.25635 19.4455 9.26269L19.5355 9.28711L19.6166 9.30664L19.6705 9.31787L19.7563 9.33398L19.8003 9.34131C19.8425 9.34765 19.8852 9.35351 19.9278 9.3584L19.9639 9.36181C19.9981 9.36474 20.0328 9.36767 20.0675 9.36963L20.1078 9.37207C20.1547 9.37207 20.1988 9.37597 20.2447 9.37597C20.2991 9.37597 20.3525 9.37597 20.406 9.37109L20.4566 9.36719C20.4931 9.36426 20.5292 9.36181 20.5653 9.35791L20.6239 9.3501C20.6567 9.3457 20.69 9.34131 20.7228 9.33594L20.7819 9.32471C20.8138 9.31885 20.8461 9.3125 20.8756 9.30566L20.9333 9.2915C20.9652 9.28369 20.9971 9.27588 21.0271 9.2666C21.0453 9.26172 21.0631 9.25635 21.0814 9.25049C21.1138 9.24072 21.1461 9.23047 21.178 9.21973L21.2277 9.20215C21.261 9.18994 21.2938 9.17724 21.3266 9.16406L21.3702 9.14599C21.4053 9.13135 21.44 9.11572 21.4742 9.09961L21.5094 9.08301C21.5474 9.06445 21.5849 9.04541 21.6219 9.0249L21.6449 9.01318C21.688 8.98877 21.7311 8.96435 21.7733 8.9375H21.7761C22.0467 8.77181 22.2909 8.56326 22.4999 8.31933C22.9839 7.74895 23.2507 7.01371 23.2499 6.25244Z" fill="#717171"/>
<path d="M17.4084 9.88916L12.4603 13.8979C12.3287 14.0045 12.1667 14.0624 12 14.0624C11.8333 14.0624 11.6713 14.0045 11.5397 13.8979L4.78969 8.4292C4.71038 8.36681 4.64377 8.28863 4.59372 8.1992C4.54367 8.10976 4.51118 8.01086 4.49815 7.90823C4.48511 7.80561 4.49179 7.70131 4.51778 7.60139C4.54378 7.50147 4.58858 7.40794 4.64958 7.32621C4.71058 7.24449 4.78656 7.17621 4.87312 7.12534C4.95967 7.07447 5.05506 7.04202 5.15376 7.02989C5.25245 7.01775 5.35248 7.02617 5.44802 7.05465C5.54357 7.08314 5.63272 7.13111 5.71031 7.1958L12 12.2915L16.4166 8.71338C15.9892 7.99324 15.7574 7.16585 15.7457 6.31933C15.7341 5.4728 15.9431 4.63884 16.3505 3.90625H4.125C3.42904 3.90703 2.76179 4.19536 2.26967 4.70799C1.77755 5.22061 1.50074 5.91566 1.5 6.64062V18.3594C1.50074 19.0843 1.77755 19.7794 2.26967 20.292C2.76179 20.8046 3.42904 21.093 4.125 21.0938H19.875C20.571 21.093 21.2382 20.8046 21.7303 20.292C22.2225 19.7794 22.4993 19.0843 22.5 18.3594V10.312C21.7105 10.7884 20.8004 11.0031 19.8909 10.9276C18.9814 10.852 18.1155 10.4898 17.4084 9.88916Z" fill="#717171"/>
</svg>
