<svg width="18" height="4" viewBox="0 0 18 4" fill="none" xmlns="http://www.w3.org/2000/svg">
<path d="M1.8 3.62065C2.79411 3.62065 3.6 2.8796 3.6 1.96548C3.6 1.05135 2.79411 0.310303 1.8 0.310303C0.805887 0.310303 0 1.05135 0 1.96548C0 2.8796 0.805887 3.62065 1.8 3.62065Z" fill="#787878"/>
<path d="M8.99995 3.62065C9.99406 3.62065 10.8 2.8796 10.8 1.96548C10.8 1.05135 9.99406 0.310303 8.99995 0.310303C8.00584 0.310303 7.19995 1.05135 7.19995 1.96548C7.19995 2.8796 8.00584 3.62065 8.99995 3.62065Z" fill="#787878"/>
<path d="M16.2 3.62065C17.1941 3.62065 18 2.8796 18 1.96548C18 1.05135 17.1941 0.310303 16.2 0.310303C15.2059 0.310303 14.4 1.05135 14.4 1.96548C14.4 2.8796 15.2059 3.62065 16.2 3.62065Z" fill="#787878"/>
</svg>
