<svg width="44" height="44" viewBox="0 0 44 44" fill="none" xmlns="http://www.w3.org/2000/svg">
<path d="M22 0.0625C17.6612 0.0625 13.4198 1.34911 9.81219 3.75964C6.20458 6.17016 3.3928 9.59633 1.7324 13.6049C0.0720052 17.6134 -0.362431 22.0243 0.484033 26.2798C1.3305 30.5353 3.41984 34.4441 6.48786 37.5122C9.55587 40.5802 13.4648 42.6695 17.7202 43.516C21.9757 44.3624 26.3866 43.928 30.3951 42.2676C34.4037 40.6072 37.8299 37.7954 40.2404 34.1878C42.6509 30.5802 43.9375 26.3388 43.9375 22C43.9314 16.1837 41.6181 10.6074 37.5054 6.49463C33.3926 2.38188 27.8163 0.0686421 22 0.0625ZM29.9439 21.5064C29.7872 21.6633 29.6011 21.7878 29.3962 21.8727C29.1914 21.9576 28.9718 22.0013 28.75 22.0013C28.5282 22.0013 28.3087 21.9576 28.1038 21.8727C27.8989 21.7878 27.7128 21.6633 27.5561 21.5064L23.6875 17.6357V30.4375C23.6875 30.8851 23.5097 31.3143 23.1933 31.6307C22.8768 31.9472 22.4476 32.125 22 32.125C21.5525 32.125 21.1232 31.9472 20.8068 31.6307C20.4903 31.3143 20.3125 30.8851 20.3125 30.4375V17.6357L16.4439 21.5064C16.1273 21.8231 15.6978 22.0009 15.25 22.0009C14.8022 22.0009 14.3727 21.8231 14.0561 21.5064C13.7395 21.1898 13.5616 20.7603 13.5616 20.3125C13.5616 19.8647 13.7395 19.4352 14.0561 19.1186L20.8061 12.3686C20.9628 12.2117 21.1489 12.0872 21.3538 12.0023C21.5587 11.9174 21.7782 11.8737 22 11.8737C22.2218 11.8737 22.4414 11.9174 22.6462 12.0023C22.8511 12.0872 23.0372 12.2117 23.1939 12.3686L29.9439 19.1186C30.1008 19.2753 30.2253 19.4614 30.3102 19.6663C30.3951 19.8711 30.4388 20.0907 30.4388 20.3125C30.4388 20.5343 30.3951 20.7539 30.3102 20.9587C30.2253 21.1636 30.1008 21.3497 29.9439 21.5064Z" fill="black"/>
</svg>
