<svg width="38" height="38" viewBox="0 0 38 38" fill="none" xmlns="http://www.w3.org/2000/svg">
<path d="M6.33337 10.0833H31.6667M15.8334 16.4167V25.9167M22.1667 16.4167V25.9167M7.91671 10.0833L9.50004 29.0833C9.50004 29.9232 9.83367 30.7286 10.4275 31.3225C11.0214 31.9164 11.8269 32.25 12.6667 32.25H25.3334C26.1732 32.25 26.9787 31.9164 27.5725 31.3225C28.1664 30.7286 28.5 29.9232 28.5 29.0833L30.0834 10.0833M14.25 10.0833V5.33333C14.25 4.91341 14.4169 4.51068 14.7138 4.21375C15.0107 3.91681 15.4134 3.75 15.8334 3.75H22.1667C22.5866 3.75 22.9894 3.91681 23.2863 4.21375C23.5832 4.51068 23.75 4.91341 23.75 5.33333V10.0833" stroke="#4C4C4C" stroke-width="3" stroke-linecap="round" stroke-linejoin="round"/>
</svg>
