<svg width="25" height="25" viewBox="0 0 25 25" fill="none" xmlns="http://www.w3.org/2000/svg">
<path d="M12.5 7.42193C13.3498 7.42193 14.1806 7.67394 14.8872 8.14609C15.5938 8.61823 16.1446 9.28931 16.4698 10.0745C16.795 10.8596 16.8801 11.7236 16.7143 12.5571C16.5485 13.3906 16.1393 14.1562 15.5383 14.7572C14.9374 15.3581 14.1718 15.7673 13.3383 15.9331C12.5048 16.0989 11.6408 16.0138 10.8556 15.6886C10.0705 15.3634 9.39941 14.8126 8.92727 14.106C8.45512 13.3994 8.20311 12.5686 8.20311 11.7188C8.20311 10.5792 8.65582 9.48628 9.46164 8.68046C10.2675 7.87464 11.3604 7.42193 12.5 7.42193V7.42193ZM17.1875 6.25006H18.75V7.81256C18.75 8.01976 18.8323 8.21847 18.9788 8.36498C19.1253 8.5115 19.324 8.59381 19.5312 8.59381C19.7384 8.59381 19.9372 8.5115 20.0837 8.36498C20.2302 8.21847 20.3125 8.01976 20.3125 7.81256V6.25006H21.875C22.0822 6.25006 22.2809 6.16775 22.4274 6.02123C22.5739 5.87472 22.6562 5.67601 22.6562 5.46881C22.6562 5.26161 22.5739 5.06289 22.4274 4.91638C22.2809 4.76987 22.0822 4.68756 21.875 4.68756H20.3125V3.12506C20.3125 2.91786 20.2302 2.71914 20.0837 2.57263C19.9372 2.42612 19.7384 2.34381 19.5312 2.34381C19.324 2.34381 19.1253 2.42612 18.9788 2.57263C18.8323 2.71914 18.75 2.91786 18.75 3.12506V4.68756H17.1875C16.9803 4.68756 16.7816 4.76987 16.6351 4.91638C16.4885 5.06289 16.4062 5.26161 16.4062 5.46881C16.4062 5.67601 16.4885 5.87472 16.6351 6.02123C16.7816 6.16775 16.9803 6.25006 17.1875 6.25006ZM21.6406 10.254C21.5388 10.2682 21.4409 10.3027 21.3526 10.3554C21.2642 10.408 21.1874 10.4778 21.1264 10.5606C21.0654 10.6434 21.0217 10.7375 20.9976 10.8375C20.9735 10.9374 20.9697 11.0412 20.9863 11.1426C21.0564 11.5917 21.0923 12.0455 21.0937 12.5001C21.0966 14.6029 20.3248 16.6332 18.9258 18.2032C18.2934 17.296 17.4784 16.531 16.5332 15.9571C15.4479 16.9968 14.003 17.5773 12.5 17.5773C10.997 17.5773 9.55208 16.9968 8.46678 15.9571C7.52154 16.531 6.70661 17.296 6.07421 18.2032C4.97539 16.9646 4.25777 15.4349 4.00767 13.7982C3.75756 12.1614 3.9856 10.4873 4.66438 8.97705C5.34315 7.46682 6.44376 6.18484 7.83382 5.28527C9.22389 4.3857 10.8442 3.90685 12.5 3.90631C12.9545 3.90772 13.4083 3.94363 13.8574 4.01373C14.0599 4.04148 14.2652 3.98877 14.4293 3.86689C14.5934 3.74502 14.7032 3.56369 14.7351 3.36181C14.7671 3.15993 14.7186 2.95356 14.6002 2.78698C14.4817 2.62041 14.3027 2.50688 14.1015 2.47076C13.5721 2.38444 13.0364 2.34198 12.5 2.34381C10.4535 2.34452 8.45502 2.96344 6.76635 4.11946C5.07768 5.27548 3.77763 6.91468 3.03656 8.82225C2.29549 10.7298 2.14798 12.8168 2.61335 14.8096C3.07871 16.8024 4.13526 18.6082 5.64452 19.9903L5.77147 20.1075C7.62817 21.7496 10.0213 22.6561 12.5 22.6561C14.9787 22.6561 17.3718 21.7496 19.2285 20.1075L19.3555 19.9903C20.3966 19.0402 21.2279 17.8833 21.7963 16.5935C22.3647 15.3037 22.6576 13.9095 22.6562 12.5001C22.6581 11.9636 22.6156 11.4279 22.5293 10.8985C22.5139 10.7975 22.4785 10.7007 22.4254 10.6135C22.3722 10.5263 22.3023 10.4505 22.2196 10.3906C22.1369 10.3306 22.0432 10.2877 21.9438 10.2642C21.8444 10.2408 21.7414 10.2373 21.6406 10.254V10.254Z" fill="black"/>
</svg>
